# xmcd
#
# Track frame offsets: 
#        150
#        23852
#        38575
#        50630
#        63697
#        76775
#        93427
#        109507
#        121000
#        138910
#
# Disc length: 2021 seconds
#
# Revision: 0
# Processed by: cddbd v1.5.2PL0 Copyright (c) Steve Scherf et al.
# Submitted via: ExactAudioCopy v0.99pb4
#
DISCID=7707e30a
DTITLE=B. B. King - My Kind Of Blues
DYEAR=2006
DGENRE=Blues
TTITLE0=You Done Lost Your Good Thing Now
TTITLE1=Mr. Pawnbroker
TTITLE2=Understand
TTITLE3=Someday Baby
TTITLE4=Driving Wheel
TTITLE5=Walking Dr. Bill
TTITLE6=My Own Fault, Baby
TTITLE7=Cat Fish Blues
TTITLE8=Hold That Train
TTITLE9=Please Set The Date
EXTD=
EXTT0=
EXTT1=
EXTT2=
EXTT3=
EXTT4=
EXTT5=
EXTT6=
EXTT7=
EXTT8=
EXTT9=
PLAYORDER=
